<svg width="14" height="11" viewBox="0 0 14 11" fill="none" xmlns="http://www.w3.org/2000/svg">
<path d="M8.18945 0.127818C11.1289 1.83645 13.7895 4.51973 13.8605 4.64126C14 4.76518 14 4.88671 14 5.07021C14 5.19174 13.9289 5.37524 13.8605 5.49677C13.7895 5.6183 11.0605 8.30159 8.18945 10.0102C7.97891 10.1317 7.7 10.1317 7.42109 10.0722C7.21055 9.95064 7 9.76715 7 9.52169V7.26497C7 7.26497 0.910547 6.95994 0.628907 6.77645C0.278907 6.41185 0 5.68026 0 5.00825C0 4.33624 0.278907 3.66661 0.628907 3.42116C0.910547 3.29962 7 2.87306 7 2.87306V0.616338C7 0.370887 7.13945 0.189777 7.42109 0.0658597C7.62891 -0.0556747 7.91055 0.00628368 8.18945 0.127818Z" fill="#111111"/>
</svg>
